<svg id="Capa_1" enable-background="new 0 0 512 512" height="512" viewBox="0 0 512 512" width="512" xmlns="http://www.w3.org/2000/svg"><g><path d="m495.718 1.582c-7.456-3.691-16.421-.703-20.142 6.694l-136.92 274.08-26.818-13.433c-22.207-11.118-49.277-2.065-60.396 20.083l-6.713 13.405 160.957 80.616 6.713-13.411c11.087-22.143 2.227-49.18-20.083-60.381l-26.823-13.435 136.919-274.077c3.706-7.412.703-16.421-6.694-20.141z"/><circle cx="173" cy="497" r="15"/><circle cx="23" cy="407" r="15"/><circle cx="83" cy="437" r="15"/><path d="m113 482h-60c-8.276 0-15-6.724-15-15 0-8.291-6.709-15-15-15s-15 6.709-15 15c0 24.814 20.186 45 45 45h60c8.291 0 15-6.709 15-15s-6.709-15-15-15z"/><path d="m108.635 388.074c-6.563.82-11.807 5.845-12.92 12.349-1.113 6.519 2.153 12.993 8.057 15.952l71.675 35.889c12.935 6.475 27.231 9.053 41.177 7.573-1.641 6.65 1.479 13.784 7.852 16.992l67.061 33.589c5.636 2.78 12.169 1.8 16.685-2.197 2.347-2.091 53.436-48.056 83.3-98.718l-161.605-80.94c-36.208 48.109-120.363 59.39-121.282 59.511z"/></g></svg>