<svg width="38" height="43" viewBox="0 0 38 43" fill="none" xmlns="http://www.w3.org/2000/svg">
<path d="M18.9719 0.475317C18.4951 0.48277 18.0408 0.679078 17.7086 1.02116C17.3764 1.36324 17.1935 1.82314 17.2 2.29993V3.19993H7.3C7.06157 3.19669 6.82486 3.24086 6.60364 3.32986C6.38242 3.41887 6.18108 3.55094 6.01132 3.71841C5.84157 3.88587 5.70678 4.0854 5.61477 4.30539C5.52277 4.52539 5.47539 4.76147 5.47539 4.99993H2.8C2.56148 4.99655 2.32467 5.04062 2.10332 5.12956C1.88198 5.21851 1.68052 5.35056 1.51066 5.51804C1.34079 5.68552 1.20591 5.88509 1.11384 6.10515C1.02178 6.32521 0.974365 6.56138 0.974365 6.79993C0.974365 7.03847 1.02178 7.27464 1.11384 7.4947C1.20591 7.71476 1.34079 7.91433 1.51066 8.08181C1.68052 8.24929 1.88198 8.38134 2.10332 8.47029C2.32467 8.55923 2.56148 8.6033 2.8 8.59993H35.2C35.4385 8.6033 35.6753 8.55923 35.8967 8.47029C36.118 8.38134 36.3195 8.24929 36.4893 8.08181C36.6592 7.91433 36.7941 7.71476 36.8862 7.4947C36.9782 7.27464 37.0256 7.03847 37.0256 6.79993C37.0256 6.56138 36.9782 6.32521 36.8862 6.10515C36.7941 5.88509 36.6592 5.68552 36.4893 5.51804C36.3195 5.35056 36.118 5.21851 35.8967 5.12956C35.6753 5.04062 35.4385 4.99655 35.2 4.99993H32.5246C32.5246 4.76147 32.4772 4.52539 32.3852 4.30539C32.2932 4.0854 32.1584 3.88587 31.9887 3.71841C31.8189 3.55094 31.6176 3.41887 31.3964 3.32986C31.1751 3.24086 30.9384 3.19669 30.7 3.19993H20.8V2.29993C20.8033 2.05911 20.7582 1.82007 20.6675 1.59698C20.5767 1.37389 20.4421 1.17127 20.2717 1.00113C20.1012 0.830996 19.8983 0.696793 19.6751 0.606474C19.4518 0.516155 19.2127 0.471556 18.9719 0.475317ZM2.8 12.1999L6.02735 39.6218C6.23975 41.4344 7.77402 42.7999 9.59922 42.7999H28.4008C30.226 42.7999 31.7585 41.4344 31.9727 39.6218L35.2 12.1999H2.8Z" fill="black"/>
</svg>
