<svg width="62" height="62" viewBox="0 0 62 62" fill="none" xmlns="http://www.w3.org/2000/svg">
<path d="M58.0633 6.88904H3.93656C1.76263 6.88904 0 8.65156 0 10.8255V51.1748C0 53.3486 1.76263 55.1111 3.93656 55.1111H58.0633C60.2374 55.1111 62 53.3486 62 51.1747V10.8255C62 8.65156 60.2375 6.88904 58.0633 6.88904ZM58.0633 10.8255V39.4547L50.3055 32.4014C49.1394 31.3415 47.3463 31.3839 46.2322 32.4989L38.3807 40.3492L22.8997 21.8575C21.7295 20.46 19.586 20.4463 18.3983 21.827L3.93656 38.634V10.8255H58.0633ZM41.3334 21.1588C41.3334 18.169 43.7561 15.7461 46.7459 15.7461C49.7358 15.7461 52.1586 18.169 52.1586 21.1588C52.1586 24.1486 49.7359 26.5714 46.7459 26.5714C43.7562 26.5716 41.3334 24.1486 41.3334 21.1588Z" fill="black"/>
</svg>
