<svg id="Layer_1" enable-background="new 0 0 481 481" height="512" viewBox="0 0 481 481" width="512" xmlns="http://www.w3.org/2000/svg"><g><path d="m42.5.5h-18c-13.233 0-24 10.766-24 24v18c0 13.234 10.767 24 24 24h18c13.233 0 24-10.766 24-24v-18c0-13.234-10.767-24-24-24z"/><path d="m438.5 66.5h18c13.233 0 24-10.766 24-24v-18c0-13.234-10.767-24-24-24h-18c-13.233 0-24 10.766-24 24v18c0 13.234 10.767 24 24 24z"/><path d="m457 208h-18c-13.233 0-24 10.766-24 24v18c0 13.234 10.767 24 24 24h18c13.233 0 24-10.766 24-24v-18c0-13.234-10.767-24-24-24z"/><path d="m24 274h18c13.233 0 24-10.766 24-24v-18c0-13.234-10.767-24-24-24h-18c-13.233 0-24 10.766-24 24v18c0 13.234 10.767 24 24 24z"/><path d="m249.5.5h-18c-13.233 0-24 10.766-24 24v18c0 13.234 10.767 24 24 24h18c13.233 0 24-10.766 24-24v-18c0-13.234-10.767-24-24-24z"/><path d="m249.5 414.5h-18c-13.233 0-24 10.766-24 24v18c0 13.234 10.767 24 24 24h18c13.233 0 24-10.766 24-24v-18c0-13.234-10.767-24-24-24z"/><path d="m42.5 414.5h-18c-13.233 0-24 10.766-24 24v18c0 13.234 10.767 24 24 24h18c13.233 0 24-10.766 24-24v-18c0-13.234-10.767-24-24-24z"/><path d="m456.5 414.5h-18c-13.233 0-24 10.766-24 24v18c0 13.234 10.767 24 24 24h18c13.233 0 24-10.766 24-24v-18c0-13.234-10.767-24-24-24z"/><path d="m301.435 232.685-59.208-44.293c-2.095-1.567-2.146-4.69-.104-6.325l20.887-16.722c16.186-12.959 10.348-37.495-8.619-42.341l-137.258-35.064c-17.647-4.509-33.708 11.517-29.193 29.193l35.063 137.258c4.9 19.176 29.624 24.504 41.989 9.059l17.073-21.326c1.635-2.042 4.758-1.991 6.326.104l44.294 59.208c8.756 11.706 25.864 12.918 36.188 2.594l35.155-35.156c10.339-10.339 9.1-27.443-2.593-36.189z"/><path d="m191.5 31.5v4c0 3.314-2.686 6-6 6h-97c-3.314 0-6-2.686-6-6v-4c0-3.314 2.686-6 6-6h97c3.314 0 6 2.686 6 6z"/><path d="m398.5 31.5v4c0 3.314-2.686 6-6 6h-97c-3.314 0-6-2.686-6-6v-4c0-3.314 2.686-6 6-6h97c3.314 0 6 2.686 6 6z"/><path d="m398.5 445.5v4c0 3.314-2.686 6-6 6h-97c-3.314 0-6-2.686-6-6v-4c0-3.314 2.686-6 6-6h97c3.314 0 6 2.686 6 6z"/><path d="m191.5 445.5v4c0 3.314-2.686 6-6 6h-97c-3.314 0-6-2.686-6-6v-4c0-3.314 2.686-6 6-6h97c3.314 0 6 2.686 6 6z"/><path d="m455.5 88.5v97.5c0 3.314-2.686 6-6 6h-4c-3.314 0-6-2.686-6-6v-97.5c0-3.314 2.686-6 6-6h4c3.314 0 6 2.686 6 6z"/><path d="m455.5 296v96.5c0 3.314-2.686 6-6 6h-4c-3.314 0-6-2.686-6-6v-96.5c0-3.314 2.686-6 6-6h4c3.314 0 6 2.686 6 6z"/><path d="m41.5 296v96.5c0 3.314-2.686 6-6 6h-4c-3.314 0-6-2.686-6-6v-96.5c0-3.314 2.686-6 6-6h4c3.314 0 6 2.686 6 6z"/><path d="m41.5 88.5v97.5c0 3.314-2.686 6-6 6h-4c-3.314 0-6-2.686-6-6v-97.5c0-3.314 2.686-6 6-6h4c3.314 0 6 2.686 6 6z"/></g></svg>