<?xml version="1.0" encoding="iso-8859-1"?>
<!-- Generator: Adobe Illustrator 19.0.0, SVG Export Plug-In . SVG Version: 6.00 Build 0)  -->
<svg version="1.1" id="Layer_1" xmlns="http://www.w3.org/2000/svg" xmlns:xlink="http://www.w3.org/1999/xlink" x="0px" y="0px"
	 viewBox="0 0 507.85 507.85" style="enable-background:new 0 0 507.85 507.85;" xml:space="preserve">
<g>
	<g>
		<path d="M490.8,148.725l-104.8-104c-11.2-10.8-26-17.2-41.6-17.2c-15.6,0-30.4,6-41.6,17.2l-285.6,284
			C6,339.525,0,354.325,0,369.925c0,15.6,6,30.4,17.2,41.2l66.8,66.8c1.6,1.6,3.6,2.4,5.6,2.4h279.6c4.4,0,8-3.6,8-8
			c0-4.4-3.6-8-8-8H256.4l234-232.8C513.6,208.725,513.6,171.525,490.8,148.725z M234,464.325H92.8l-64.4-64
			c-8-8-12.4-18.8-12.4-30.4c0-11.6,4.4-22,12.4-30.4l140.4-139.2l165.2,164.4L234,464.325z"/>
	</g>
</g>
<g>
</g>
<g>
</g>
<g>
</g>
<g>
</g>
<g>
</g>
<g>
</g>
<g>
</g>
<g>
</g>
<g>
</g>
<g>
</g>
<g>
</g>
<g>
</g>
<g>
</g>
<g>
</g>
<g>
</g>
</svg>
