<svg width="71" height="71" viewBox="0 0 71 71" fill="none" xmlns="http://www.w3.org/2000/svg">
<g clip-path="url(#clip0_502_135)">
<path d="M6.27338 0.0737305H3.61641C1.6631 0.0737305 0.0737915 1.66289 0.0737915 3.61635V6.27332C0.0737915 8.22678 1.6631 9.81594 3.61641 9.81594H6.27338C8.22669 9.81594 9.816 8.22678 9.816 6.27332V3.61635C9.816 1.66289 8.22669 0.0737305 6.27338 0.0737305Z" fill="black"/>
<path d="M64.7266 9.81594H67.3835C69.3369 9.81594 70.9262 8.22678 70.9262 6.27332V3.61635C70.9262 1.66289 69.3369 0.0737305 67.3835 0.0737305H64.7266C62.7733 0.0737305 61.184 1.66289 61.184 3.61635V6.27332C61.184 8.22678 62.7733 9.81594 64.7266 9.81594Z" fill="black"/>
<path d="M67.4574 30.7026H64.8004C62.8471 30.7026 61.2578 32.2918 61.2578 34.2453V36.9022C61.2578 38.8557 62.8471 40.4448 64.8004 40.4448H67.4574C69.4107 40.4448 71 38.8557 71 36.9022V34.2453C71 32.2918 69.4107 30.7026 67.4574 30.7026Z" fill="black"/>
<path d="M3.54262 40.4448H6.19958C8.15289 40.4448 9.7422 38.8557 9.7422 36.9022V34.2453C9.7422 32.2918 8.15289 30.7026 6.19958 30.7026H3.54262C1.58931 30.7026 0 32.2918 0 34.2453V36.9022C0 38.8557 1.58931 40.4448 3.54262 40.4448Z" fill="black"/>
<path d="M36.8285 0.0737305H34.1715C32.2182 0.0737305 30.6289 1.66289 30.6289 3.61635V6.27332C30.6289 8.22678 32.2182 9.81594 34.1715 9.81594H36.8285C38.7818 9.81594 40.3711 8.22678 40.3711 6.27332V3.61635C40.3711 1.66289 38.7818 0.0737305 36.8285 0.0737305Z" fill="black"/>
<path d="M36.8285 61.1838H34.1715C32.2182 61.1838 30.6289 62.773 30.6289 64.7265V67.3834C30.6289 69.3369 32.2182 70.926 34.1715 70.926H36.8285C38.7818 70.926 40.3711 69.3369 40.3711 67.3834V64.7265C40.3711 62.773 38.7818 61.1838 36.8285 61.1838Z" fill="black"/>
<path d="M6.27338 61.1838H3.61641C1.6631 61.1838 0.0737915 62.773 0.0737915 64.7265V67.3834C0.0737915 69.3369 1.6631 70.926 3.61641 70.926H6.27338C8.22669 70.926 9.816 69.3369 9.816 67.3834V64.7265C9.816 62.773 8.22669 61.1838 6.27338 61.1838Z" fill="black"/>
<path d="M67.3835 61.1838H64.7266C62.7733 61.1838 61.184 62.773 61.184 64.7265V67.3834C61.184 69.3369 62.7733 70.926 64.7266 70.926H67.3835C69.3369 70.926 70.9262 69.3369 70.9262 67.3834V64.7265C70.9262 62.773 69.3369 61.1838 67.3835 61.1838Z" fill="black"/>
<path d="M44.4946 34.3465L35.7549 27.8084C35.4457 27.5771 35.4382 27.1161 35.7396 26.8748L38.8227 24.4065C41.2119 22.4936 40.3502 18.8719 37.5505 18.1566L17.2899 12.9808C14.6851 12.3152 12.3143 14.6808 12.9808 17.2899L18.1564 37.5505C18.8797 40.381 22.5292 41.1675 24.3543 38.8877L26.8745 35.7398C27.1158 35.4383 27.5768 35.4459 27.8083 35.7551L34.3465 44.4948C35.6389 46.2227 38.1642 46.4016 39.6881 44.8777L44.8773 39.6883C46.4035 38.1622 46.2206 35.6375 44.4946 34.3465V34.3465Z" fill="black"/>
<path d="M28.2671 4.64957V5.24001C28.2671 5.72918 27.8707 6.12566 27.3815 6.12566H13.0634C12.5742 6.12566 12.1777 5.72918 12.1777 5.24001V4.64957C12.1777 4.16039 12.5742 3.76392 13.0634 3.76392H27.3815C27.8707 3.76392 28.2671 4.16039 28.2671 4.64957Z" fill="black"/>
<path d="M58.8223 4.64957V5.24001C58.8223 5.72918 58.4258 6.12566 57.9366 6.12566H43.6185C43.1293 6.12566 42.7328 5.72918 42.7328 5.24001V4.64957C42.7328 4.16039 43.1293 3.76392 43.6185 3.76392H57.9366C58.4258 3.76392 58.8223 4.16039 58.8223 4.64957Z" fill="black"/>
<path d="M58.8223 65.7597V66.3501C58.8223 66.8393 58.4258 67.2358 57.9366 67.2358H43.6185C43.1293 67.2358 42.7328 66.8393 42.7328 66.3501V65.7597C42.7328 65.2705 43.1293 64.874 43.6185 64.874H57.9366C58.4258 64.874 58.8223 65.2705 58.8223 65.7597Z" fill="black"/>
<path d="M28.2671 65.7597V66.3501C28.2671 66.8393 27.8707 67.2358 27.3815 67.2358H13.0634C12.5742 67.2358 12.1777 66.8393 12.1777 66.3501V65.7597C12.1777 65.2705 12.5742 64.874 13.0634 64.874H27.3815C27.8707 64.874 28.2671 65.2705 28.2671 65.7597Z" fill="black"/>
<path d="M67.2359 13.0634V27.4553C67.2359 27.9445 66.8395 28.3409 66.3503 28.3409H65.7599C65.2707 28.3409 64.8742 27.9445 64.8742 27.4553V13.0634C64.8742 12.5742 65.2707 12.1777 65.7599 12.1777H66.3503C66.8395 12.1777 67.2359 12.5742 67.2359 13.0634Z" fill="black"/>
<path d="M67.2359 43.6923V57.9366C67.2359 58.4258 66.8395 58.8222 66.3503 58.8222H65.7599C65.2707 58.8222 64.8742 58.4258 64.8742 57.9366V43.6923C64.8742 43.2031 65.2707 42.8066 65.7599 42.8066H66.3503C66.8395 42.8066 67.2359 43.2031 67.2359 43.6923Z" fill="black"/>
<path d="M6.12578 43.6923V57.9366C6.12578 58.4258 5.7293 58.8222 5.24013 58.8222H4.64969C4.16052 58.8222 3.76404 58.4258 3.76404 57.9366V43.6923C3.76404 43.2031 4.16052 42.8066 4.64969 42.8066H5.24013C5.7293 42.8066 6.12578 43.2031 6.12578 43.6923Z" fill="black"/>
<path d="M6.12578 13.0634V27.4553C6.12578 27.9445 5.7293 28.3409 5.24013 28.3409H4.64969C4.16052 28.3409 3.76404 27.9445 3.76404 27.4553V13.0634C3.76404 12.5742 4.16052 12.1777 4.64969 12.1777H5.24013C5.7293 12.1777 6.12578 12.5742 6.12578 13.0634Z" fill="black"/>
</g>
<defs>
<clipPath id="clip0_502_135">
<rect width="71" height="71" fill="white"/>
</clipPath>
</defs>
</svg>
