<?xml version="1.0" encoding="iso-8859-1"?>
<!-- Generator: Adobe Illustrator 19.0.0, SVG Export Plug-In . SVG Version: 6.00 Build 0)  -->
<svg version="1.1" id="Layer_1" xmlns="http://www.w3.org/2000/svg" xmlns:xlink="http://www.w3.org/1999/xlink" x="0px" y="0px"
	 viewBox="0 0 503.6 503.6" style="enable-background:new 0 0 503.6 503.6;" xml:space="preserve">
<g>
	<g>
		<path d="M473.985,0h-447.6c-2.4,0-2.4,2.4-2.4,4.4V80c0,1.6,0,3.2,1.6,3.6c1.6,0.4,2.8,0,4-0.8l54.8-55.2h136v418.8l-56.4,50.4
			c-1.2,1.2-1.2,2.8-0.8,4.4c0.4,1.6,2.4,2.4,4,2.4h165.6c1.6,0,3.2-1.2,3.6-2.4c0.4-1.6,0.8-3.2-0.4-4.4l-56.4-50V27.6h136.4
			l55.2,55.6c1.2,1.2,3.6,1.6,5.2,0.8c1.6-0.8,3.2-2,3.2-3.6v-76C479.985,2.4,476.385,0,473.985,0z"/>
	</g>
</g>
<g>
</g>
<g>
</g>
<g>
</g>
<g>
</g>
<g>
</g>
<g>
</g>
<g>
</g>
<g>
</g>
<g>
</g>
<g>
</g>
<g>
</g>
<g>
</g>
<g>
</g>
<g>
</g>
<g>
</g>
</svg>
