<svg width="55" height="55" viewBox="0 0 55 55" fill="none" xmlns="http://www.w3.org/2000/svg">
<g clip-path="url(#clip0_502_51)">
<path d="M53.1535 16.1069L41.8037 4.84371C40.5907 3.67407 38.9879 2.98096 37.2984 2.98096C35.6089 2.98096 34.0061 3.63076 32.7931 4.84371L1.86275 35.6008C0.649798 36.7705 0 38.3733 0 40.0628C0 41.7522 0.649798 43.3551 1.86275 44.5247L9.09717 51.7591C9.27045 51.9324 9.48705 52.0191 9.70365 52.0191H39.9842C40.4608 52.0191 40.8506 51.6292 40.8506 51.1527C40.8506 50.6761 40.4608 50.2863 39.9842 50.2863H27.768L53.1102 25.0741C55.6227 22.6049 55.6227 18.5761 53.1535 16.1069ZM25.3421 50.2863H10.0502L3.07571 43.3551C2.20931 42.4887 1.7328 41.3191 1.7328 40.0628C1.7328 38.8065 2.20931 37.6802 3.07571 36.7705L18.281 21.6951L36.1721 39.4996L25.3421 50.2863Z" fill="black"/>
</g>
<defs>
<clipPath id="clip0_502_51">
<rect width="55" height="55" fill="white"/>
</clipPath>
</defs>
</svg>
