<svg width="63" height="59" viewBox="0 0 63 59" fill="none" xmlns="http://www.w3.org/2000/svg">
<g filter="url(#filter0_i_502_132)">
<path d="M46.6964 19.0268C46.1595 18.5236 45.2087 18.5236 44.6718 19.0268L17.438 44.553C17.1122 44.8584 16.964 45.291 17.0366 45.7169C17.1107 46.1428 17.3988 46.5097 17.8098 46.7024L20.0456 47.7508V51.2769L13.1956 53.1125L6.2813 46.6317L8.2397 40.211H12.0016L13.1201 42.3066C13.3256 42.6919 13.7172 42.9619 14.1716 43.0313C14.2485 43.0431 14.3254 43.0483 14.4008 43.0483C14.777 43.0483 15.1433 42.9094 15.4132 42.6551L42.6471 17.129C42.9155 16.8773 43.0665 16.5367 43.0665 16.1802C43.0665 15.8236 42.9155 15.483 42.6471 15.2313L37.3813 10.2956C37.1128 10.0439 36.7493 9.90234 36.3689 9.90234H36.3661C35.9843 9.9036 35.6193 10.0465 35.3523 10.2995L6.1429 37.9241C6.1288 37.9376 6.1294 37.9581 6.1159 37.9718C5.9689 38.1205 5.84621 38.2922 5.78205 38.5008L3.29593 46.6539L0.0548893 57.2894C-0.0877907 57.7573 0.052079 58.2619 0.419869 58.6066C0.692499 58.8622 1.05748 58.9998 1.43225 58.9998C1.56366 58.9998 1.69508 58.9827 1.82515 58.9487L13.1719 55.9108L21.8705 53.5805C21.8966 53.5735 21.9146 53.555 21.9403 53.5466C22.0306 53.5174 22.1097 53.4699 22.1927 53.4239C22.2744 53.3785 22.356 53.3381 22.425 53.2798C22.4435 53.2645 22.4678 53.2588 22.4856 53.2423L51.9581 25.8642C52.2279 25.6139 52.3804 25.2718 52.3817 24.9141C52.3831 24.5576 52.232 24.2155 51.9622 23.9626L46.6964 19.0268Z" fill="black"/>
<path d="M61.3221 9.57503L52.7313 1.52284C50.5668 -0.505988 46.8013 -0.509885 44.6283 1.52673L39.3835 6.48736C38.8284 7.01295 38.8298 7.85822 39.3876 8.38117L54.005 22.082C54.2846 22.3441 54.651 22.4752 55.0174 22.4752C55.3823 22.4752 55.7458 22.3455 56.0254 22.086L61.322 17.1661C62.4043 16.1518 62.9999 14.8044 62.9999 13.3707C62.9999 11.937 62.4044 10.5894 61.3221 9.57503Z" fill="black"/>
</g>
<defs>
<filter id="filter0_i_502_132" x="-6.10352e-05" y="0.000244141" width="62.9999" height="62.9995" filterUnits="userSpaceOnUse" color-interpolation-filters="sRGB">
<feFlood flood-opacity="0" result="BackgroundImageFix"/>
<feBlend mode="normal" in="SourceGraphic" in2="BackgroundImageFix" result="shape"/>
<feColorMatrix in="SourceAlpha" type="matrix" values="0 0 0 0 0 0 0 0 0 0 0 0 0 0 0 0 0 0 127 0" result="hardAlpha"/>
<feOffset dy="4"/>
<feGaussianBlur stdDeviation="2"/>
<feComposite in2="hardAlpha" operator="arithmetic" k2="-1" k3="1"/>
<feColorMatrix type="matrix" values="0 0 0 0 0 0 0 0 0 0 0 0 0 0 0 0 0 0 0.25 0"/>
<feBlend mode="normal" in2="shape" result="effect1_innerShadow_502_132"/>
</filter>
</defs>
</svg>
