<svg width="50" height="57" viewBox="0 0 50 57" fill="none" xmlns="http://www.w3.org/2000/svg">
<path d="M49.1927 0.521729H0.262361C-5.21264e-08 0.521729 0 0.790886 0 1.01518V9.49366C0 9.67309 -1.69411e-07 9.85253 0.174907 9.89739C0.349814 9.94225 0.480995 9.89739 0.612175 9.80767L6.60275 3.61704H21.4699V50.5851L15.3044 56.2374C15.1732 56.372 15.1732 56.5514 15.2169 56.7309C15.2607 56.9103 15.4793 57 15.6542 57H33.7571C33.932 57 34.1069 56.8654 34.1506 56.7309C34.1944 56.5514 34.2381 56.372 34.1069 56.2374L27.9414 50.6299V3.61704H42.8523L48.8866 9.85253C49.0178 9.98711 49.2801 10.032 49.455 9.94225C49.6299 9.85253 49.8048 9.71795 49.8048 9.53852V1.01518C49.8486 0.790886 49.455 0.521729 49.1927 0.521729Z" fill="black"/>
</svg>
